<?xml version="1.0" standalone="no"?>
<!DOCTYPE svg PUBLIC "-//W3C//DTD SVG 20010904//EN"
 "http://www.w3.org/TR/2001/REC-SVG-20010904/DTD/svg10.dtd">
<svg version="1.0" xmlns="http://www.w3.org/2000/svg"
 width="260.000000pt" height="260.000000pt" viewBox="0 0 260.000000 260.000000"
 preserveAspectRatio="xMidYMid meet">
<metadata>
Created by potrace 1.11, written by Peter Selinger 2001-2013
</metadata>
<g transform="translate(0.000000,260.000000) scale(0.100000,-0.100000)"
fill="#000000" stroke="none">
<path d="M0 1300 l0 -1300 1300 0 1300 0 0 1300 0 1300 -1300 0 -1300 0 0
-1300z m1171 554 c16 -20 15 -84 -2 -94 -6 -5 -61 -11 -120 -15 l-108 -7 -3
-382 c-3 -377 -3 -382 -27 -434 -31 -68 -102 -133 -173 -156 -136 -45 -317
-27 -425 43 -102 66 -103 68 -103 257 0 163 0 164 25 180 31 20 90 11 105 -16
5 -10 10 -79 10 -154 l0 -135 56 -27 c42 -20 76 -29 133 -32 99 -6 156 10 202
56 54 55 59 93 59 471 l0 329 -22 6 c-13 3 -93 6 -178 6 -108 0 -160 4 -168
12 -7 7 -12 28 -12 48 0 20 5 41 12 48 9 9 105 12 369 12 314 0 358 -2 370
-16z m586 8 c18 -11 25 -55 14 -83 -8 -23 -17 -27 -72 -33 -34 -3 -64 -8 -66
-10 -2 -2 -2 -88 -1 -192 l3 -189 193 189 c105 104 192 193 192 197 0 5 -15 9
-34 9 -57 0 -66 8 -66 54 0 23 5 47 12 54 13 13 364 17 385 4 18 -11 25 -55
14 -85 -9 -24 -16 -27 -56 -27 -46 0 -46 0 -240 -187 l-195 -188 63 -15 c110
-27 156 -79 232 -263 78 -189 91 -207 155 -207 53 0 70 -15 70 -63 0 -24 -5
-48 -12 -55 -15 -15 -127 -16 -165 -1 -66 25 -103 82 -183 283 -69 174 -136
227 -250 197 -25 -7 -61 -25 -80 -40 l-35 -28 -3 -146 -3 -145 96 -4 c107 -3
115 -8 115 -70 0 -27 -5 -40 -19 -48 -26 -14 -446 -14 -472 0 -14 8 -19 21
-19 56 0 39 3 46 26 54 14 6 50 10 80 10 l54 0 -2 428 -3 427 -65 3 c-35 2
-70 8 -77 14 -16 13 -17 80 -1 96 13 13 394 17 415 4z"/>
</g>
</svg>
